<svg id="Capa_1" enable-background="new 0 0 512 512" height="512" viewBox="0 0 512 512" width="512" xmlns="http://www.w3.org/2000/svg"><g><path d="m105 195h75v61h-75z" fill="#f03800"/><path d="m45 165h75v91h-75z" fill="#59c36a"/><path d="m332 256h75v61h-75z" fill="#f03800" transform="matrix(-1 0 0 -1 739 573)"/><path d="m392 256h75v91h-75z" fill="#59c36a" transform="matrix(-1 0 0 -1 859 603)"/><path d="m496.526 362-14.526 15c0 57.891-47.109 105-105 105s-106-47.109-106-105v-242c0-21.877-5.724-42.255-15-60.549-22.286-43.957-68.434-74.451-121-74.451-74.443 0-135 60.557-135 135l14.211 15 15.789-15c0-57.891 47.109-105 105-105s106 47.109 106 105v242c0 21.877 5.724 42.255 15 60.549 22.286 43.957 68.434 74.451 121 74.451 74.443 0 135-60.557 135-135z" fill="#ff641a"/><path d="m377 512c74.443 0 135-60.557 135-135l-15.474-15-14.526 15c0 57.891-47.109 105-105 105s-106-47.109-106-105v-242c0-21.877-5.724-42.255-15-60.549v363.099c22.286 43.956 68.434 74.45 121 74.45z" fill="#f03800"/><path d="m0 301h90v30h-90z" fill="#ff641a"/><path d="m512 135h-45v-45h-30v45h-45v30h45v46h30v-46h45z" fill="#59c36a"/><path d="m60 256h-30l-30-15v-106h60z" fill="#fed843"/><path d="m452 256h30l30 15v106h-60z" fill="#fabe2c"/><path d="m256 241h-256v30h256 256v-30z" fill="#2d5177"/><path d="m256 241h256v30h-256z" fill="#32405d"/></g></svg>